<mxfile host="Electron" agent="Mozilla/5.0 (Windows NT 10.0; Win64; x64) AppleWebKit/537.36 (KHTML, like Gecko) draw.io/26.0.4 Chrome/128.0.6613.186 Electron/32.2.5 Safari/537.36" version="26.0.4" pages="5">
  <diagram id="C5RBs43oDa-KdzZeNtuy" name="prCreateDispute">
    <mxGraphModel dx="1434" dy="836" grid="1" gridSize="10" guides="1" tooltips="1" connect="1" arrows="1" fold="1" page="1" pageScale="1" pageWidth="827" pageHeight="1169" math="0" shadow="0">
      <root>
        <mxCell id="WIyWlLk6GJQsqaUBKTNV-0" />
        <mxCell id="WIyWlLk6GJQsqaUBKTNV-1" parent="WIyWlLk6GJQsqaUBKTNV-0" />
        <mxCell id="m1DdPAOqQGmF588avAD0-4" value="" style="edgeStyle=orthogonalEdgeStyle;rounded=0;orthogonalLoop=1;jettySize=auto;html=1;" edge="1" parent="WIyWlLk6GJQsqaUBKTNV-1" source="m1DdPAOqQGmF588avAD0-1" target="m1DdPAOqQGmF588avAD0-3">
          <mxGeometry relative="1" as="geometry" />
        </mxCell>
        <mxCell id="m1DdPAOqQGmF588avAD0-5" value="Yes" style="edgeLabel;html=1;align=center;verticalAlign=middle;resizable=0;points=[];" vertex="1" connectable="0" parent="m1DdPAOqQGmF588avAD0-4">
          <mxGeometry x="-0.425" y="-2" relative="1" as="geometry">
            <mxPoint x="-18" y="3" as="offset" />
          </mxGeometry>
        </mxCell>
        <mxCell id="m1DdPAOqQGmF588avAD0-7" value="" style="edgeStyle=orthogonalEdgeStyle;rounded=0;orthogonalLoop=1;jettySize=auto;html=1;" edge="1" parent="WIyWlLk6GJQsqaUBKTNV-1" source="m1DdPAOqQGmF588avAD0-1" target="m1DdPAOqQGmF588avAD0-6">
          <mxGeometry relative="1" as="geometry" />
        </mxCell>
        <mxCell id="m1DdPAOqQGmF588avAD0-8" value="No" style="edgeLabel;html=1;align=center;verticalAlign=middle;resizable=0;points=[];" vertex="1" connectable="0" parent="m1DdPAOqQGmF588avAD0-7">
          <mxGeometry x="-0.16" y="-1" relative="1" as="geometry">
            <mxPoint x="21" y="-11" as="offset" />
          </mxGeometry>
        </mxCell>
        <mxCell id="m1DdPAOqQGmF588avAD0-1" value="Hearing&lt;div&gt;Reason&lt;/div&gt;&lt;div&gt;null?&lt;/div&gt;" style="strokeWidth=2;html=1;shape=mxgraph.flowchart.decision;whiteSpace=wrap;" vertex="1" parent="WIyWlLk6GJQsqaUBKTNV-1">
          <mxGeometry x="100" y="160" width="100" height="100" as="geometry" />
        </mxCell>
        <mxCell id="m1DdPAOqQGmF588avAD0-12" value="" style="edgeStyle=orthogonalEdgeStyle;rounded=0;orthogonalLoop=1;jettySize=auto;html=1;" edge="1" parent="WIyWlLk6GJQsqaUBKTNV-1" source="m1DdPAOqQGmF588avAD0-3" target="m1DdPAOqQGmF588avAD0-9">
          <mxGeometry relative="1" as="geometry" />
        </mxCell>
        <mxCell id="m1DdPAOqQGmF588avAD0-3" value="get count where&lt;div&gt;requested court&lt;/div&gt;&lt;div&gt;appearance&lt;/div&gt;" style="rounded=1;whiteSpace=wrap;html=1;" vertex="1" parent="WIyWlLk6GJQsqaUBKTNV-1">
          <mxGeometry x="90" y="290" width="120" height="60" as="geometry" />
        </mxCell>
        <mxCell id="m1DdPAOqQGmF588avAD0-13" style="edgeStyle=orthogonalEdgeStyle;rounded=0;orthogonalLoop=1;jettySize=auto;html=1;" edge="1" parent="WIyWlLk6GJQsqaUBKTNV-1" source="m1DdPAOqQGmF588avAD0-6" target="m1DdPAOqQGmF588avAD0-9">
          <mxGeometry relative="1" as="geometry">
            <Array as="points">
              <mxPoint x="330" y="370" />
              <mxPoint x="150" y="370" />
            </Array>
          </mxGeometry>
        </mxCell>
        <mxCell id="m1DdPAOqQGmF588avAD0-6" value="court appearance&lt;div&gt;count = 1&lt;/div&gt;" style="rounded=1;whiteSpace=wrap;html=1;" vertex="1" parent="WIyWlLk6GJQsqaUBKTNV-1">
          <mxGeometry x="270" y="180" width="120" height="60" as="geometry" />
        </mxCell>
        <mxCell id="m1DdPAOqQGmF588avAD0-15" value="" style="edgeStyle=orthogonalEdgeStyle;rounded=0;orthogonalLoop=1;jettySize=auto;html=1;" edge="1" parent="WIyWlLk6GJQsqaUBKTNV-1" source="m1DdPAOqQGmF588avAD0-9" target="m1DdPAOqQGmF588avAD0-14">
          <mxGeometry relative="1" as="geometry" />
        </mxCell>
        <mxCell id="m1DdPAOqQGmF588avAD0-16" value="No" style="edgeLabel;html=1;align=center;verticalAlign=middle;resizable=0;points=[];" vertex="1" connectable="0" parent="m1DdPAOqQGmF588avAD0-15">
          <mxGeometry x="-0.45" y="1" relative="1" as="geometry">
            <mxPoint x="38" y="-9" as="offset" />
          </mxGeometry>
        </mxCell>
        <mxCell id="m1DdPAOqQGmF588avAD0-18" value="" style="edgeStyle=orthogonalEdgeStyle;rounded=0;orthogonalLoop=1;jettySize=auto;html=1;" edge="1" parent="WIyWlLk6GJQsqaUBKTNV-1" source="m1DdPAOqQGmF588avAD0-9" target="m1DdPAOqQGmF588avAD0-17">
          <mxGeometry relative="1" as="geometry" />
        </mxCell>
        <mxCell id="m1DdPAOqQGmF588avAD0-37" value="Yes" style="edgeLabel;html=1;align=center;verticalAlign=middle;resizable=0;points=[];" vertex="1" connectable="0" parent="m1DdPAOqQGmF588avAD0-18">
          <mxGeometry x="0.5273" y="-2" relative="1" as="geometry">
            <mxPoint x="-18" as="offset" />
          </mxGeometry>
        </mxCell>
        <mxCell id="m1DdPAOqQGmF588avAD0-9" value="Hearing&lt;div&gt;Reason&lt;/div&gt;&lt;div&gt;DFW?&lt;/div&gt;" style="rhombus;whiteSpace=wrap;html=1;" vertex="1" parent="WIyWlLk6GJQsqaUBKTNV-1">
          <mxGeometry x="105" y="395" width="90" height="90" as="geometry" />
        </mxCell>
        <mxCell id="m1DdPAOqQGmF588avAD0-14" value="WR Count =&lt;div&gt;find reduction or&amp;nbsp;&lt;/div&gt;&lt;div&gt;time to pay reason&amp;nbsp;&lt;/div&gt;&lt;div&gt;not null&lt;/div&gt;" style="rounded=1;whiteSpace=wrap;html=1;" vertex="1" parent="WIyWlLk6GJQsqaUBKTNV-1">
          <mxGeometry x="270" y="410" width="120" height="60" as="geometry" />
        </mxCell>
        <mxCell id="m1DdPAOqQGmF588avAD0-20" value="" style="edgeStyle=orthogonalEdgeStyle;rounded=0;orthogonalLoop=1;jettySize=auto;html=1;" edge="1" parent="WIyWlLk6GJQsqaUBKTNV-1" source="m1DdPAOqQGmF588avAD0-17" target="m1DdPAOqQGmF588avAD0-19">
          <mxGeometry relative="1" as="geometry" />
        </mxCell>
        <mxCell id="m1DdPAOqQGmF588avAD0-17" value="WR Count = 1" style="rounded=1;whiteSpace=wrap;html=1;" vertex="1" parent="WIyWlLk6GJQsqaUBKTNV-1">
          <mxGeometry x="90" y="510" width="120" height="40" as="geometry" />
        </mxCell>
        <mxCell id="m1DdPAOqQGmF588avAD0-22" value="" style="edgeStyle=orthogonalEdgeStyle;rounded=0;orthogonalLoop=1;jettySize=auto;html=1;" edge="1" parent="WIyWlLk6GJQsqaUBKTNV-1" source="m1DdPAOqQGmF588avAD0-19" target="m1DdPAOqQGmF588avAD0-21">
          <mxGeometry relative="1" as="geometry" />
        </mxCell>
        <mxCell id="m1DdPAOqQGmF588avAD0-30" value="No" style="edgeLabel;html=1;align=center;verticalAlign=middle;resizable=0;points=[];" vertex="1" connectable="0" parent="m1DdPAOqQGmF588avAD0-22">
          <mxGeometry x="-0.2" y="1" relative="1" as="geometry">
            <mxPoint x="31" y="-14" as="offset" />
          </mxGeometry>
        </mxCell>
        <mxCell id="m1DdPAOqQGmF588avAD0-24" value="" style="edgeStyle=orthogonalEdgeStyle;rounded=0;orthogonalLoop=1;jettySize=auto;html=1;" edge="1" parent="WIyWlLk6GJQsqaUBKTNV-1" source="m1DdPAOqQGmF588avAD0-19" target="m1DdPAOqQGmF588avAD0-23">
          <mxGeometry relative="1" as="geometry" />
        </mxCell>
        <mxCell id="m1DdPAOqQGmF588avAD0-29" value="Yes" style="edgeLabel;html=1;align=center;verticalAlign=middle;resizable=0;points=[];" vertex="1" connectable="0" parent="m1DdPAOqQGmF588avAD0-24">
          <mxGeometry x="-0.64" y="-1" relative="1" as="geometry">
            <mxPoint x="-19" as="offset" />
          </mxGeometry>
        </mxCell>
        <mxCell id="m1DdPAOqQGmF588avAD0-19" value="Court&lt;div&gt;Appr&lt;/div&gt;&lt;div&gt;Count &amp;gt; 0&lt;/div&gt;" style="rhombus;whiteSpace=wrap;html=1;" vertex="1" parent="WIyWlLk6GJQsqaUBKTNV-1">
          <mxGeometry x="95" y="582" width="110" height="110" as="geometry" />
        </mxCell>
        <mxCell id="m1DdPAOqQGmF588avAD0-27" value="" style="edgeStyle=orthogonalEdgeStyle;rounded=0;orthogonalLoop=1;jettySize=auto;html=1;" edge="1" parent="WIyWlLk6GJQsqaUBKTNV-1" source="m1DdPAOqQGmF588avAD0-21" target="m1DdPAOqQGmF588avAD0-25">
          <mxGeometry relative="1" as="geometry" />
        </mxCell>
        <mxCell id="m1DdPAOqQGmF588avAD0-28" value="Yes" style="edgeLabel;html=1;align=center;verticalAlign=middle;resizable=0;points=[];" vertex="1" connectable="0" parent="m1DdPAOqQGmF588avAD0-27">
          <mxGeometry x="-0.2889" relative="1" as="geometry">
            <mxPoint x="-20" y="9" as="offset" />
          </mxGeometry>
        </mxCell>
        <mxCell id="m1DdPAOqQGmF588avAD0-31" value="" style="edgeStyle=orthogonalEdgeStyle;rounded=0;orthogonalLoop=1;jettySize=auto;html=1;" edge="1" parent="WIyWlLk6GJQsqaUBKTNV-1" source="m1DdPAOqQGmF588avAD0-21" target="m1DdPAOqQGmF588avAD0-26">
          <mxGeometry relative="1" as="geometry" />
        </mxCell>
        <mxCell id="m1DdPAOqQGmF588avAD0-32" value="No" style="edgeLabel;html=1;align=center;verticalAlign=middle;resizable=0;points=[];" vertex="1" connectable="0" parent="m1DdPAOqQGmF588avAD0-31">
          <mxGeometry x="-0.16" y="2" relative="1" as="geometry">
            <mxPoint x="9" y="-13" as="offset" />
          </mxGeometry>
        </mxCell>
        <mxCell id="m1DdPAOqQGmF588avAD0-21" value="WR&lt;div&gt;Count &amp;gt; 0&lt;/div&gt;" style="rhombus;whiteSpace=wrap;html=1;" vertex="1" parent="WIyWlLk6GJQsqaUBKTNV-1">
          <mxGeometry x="290" y="597" width="80" height="80" as="geometry" />
        </mxCell>
        <mxCell id="m1DdPAOqQGmF588avAD0-34" value="" style="edgeStyle=orthogonalEdgeStyle;rounded=0;orthogonalLoop=1;jettySize=auto;html=1;" edge="1" parent="WIyWlLk6GJQsqaUBKTNV-1" source="m1DdPAOqQGmF588avAD0-23" target="m1DdPAOqQGmF588avAD0-33">
          <mxGeometry relative="1" as="geometry" />
        </mxCell>
        <mxCell id="m1DdPAOqQGmF588avAD0-23" value="Hearing Type = C&lt;div&gt;Dispute Status = HEAR&lt;/div&gt;" style="rounded=1;whiteSpace=wrap;html=1;" vertex="1" parent="WIyWlLk6GJQsqaUBKTNV-1">
          <mxGeometry x="80" y="722" width="140" height="60" as="geometry" />
        </mxCell>
        <mxCell id="m1DdPAOqQGmF588avAD0-35" style="edgeStyle=orthogonalEdgeStyle;rounded=0;orthogonalLoop=1;jettySize=auto;html=1;" edge="1" parent="WIyWlLk6GJQsqaUBKTNV-1" source="m1DdPAOqQGmF588avAD0-25">
          <mxGeometry relative="1" as="geometry">
            <mxPoint x="150" y="882" as="targetPoint" />
            <Array as="points">
              <mxPoint x="330" y="812" />
              <mxPoint x="151" y="812" />
            </Array>
          </mxGeometry>
        </mxCell>
        <mxCell id="m1DdPAOqQGmF588avAD0-25" value="Hearing Type = U" style="rounded=1;whiteSpace=wrap;html=1;" vertex="1" parent="WIyWlLk6GJQsqaUBKTNV-1">
          <mxGeometry x="270" y="722" width="120" height="60" as="geometry" />
        </mxCell>
        <mxCell id="m1DdPAOqQGmF588avAD0-36" style="edgeStyle=orthogonalEdgeStyle;rounded=0;orthogonalLoop=1;jettySize=auto;html=1;" edge="1" parent="WIyWlLk6GJQsqaUBKTNV-1" source="m1DdPAOqQGmF588avAD0-26" target="m1DdPAOqQGmF588avAD0-33">
          <mxGeometry relative="1" as="geometry">
            <Array as="points">
              <mxPoint x="480" y="842" />
              <mxPoint x="150" y="842" />
            </Array>
          </mxGeometry>
        </mxCell>
        <mxCell id="m1DdPAOqQGmF588avAD0-26" value="Hearing Type = W" style="rounded=1;whiteSpace=wrap;html=1;" vertex="1" parent="WIyWlLk6GJQsqaUBKTNV-1">
          <mxGeometry x="420" y="607" width="120" height="60" as="geometry" />
        </mxCell>
        <mxCell id="Efubo1wc3UFcqpRqYSdm-0" value="" style="edgeStyle=orthogonalEdgeStyle;rounded=0;orthogonalLoop=1;jettySize=auto;html=1;" edge="1" parent="WIyWlLk6GJQsqaUBKTNV-1" source="m1DdPAOqQGmF588avAD0-33" target="m1DdPAOqQGmF588avAD0-38">
          <mxGeometry relative="1" as="geometry" />
        </mxCell>
        <mxCell id="m1DdPAOqQGmF588avAD0-33" value="Hearing&lt;div&gt;Type != U?&lt;/div&gt;" style="rhombus;whiteSpace=wrap;html=1;" vertex="1" parent="WIyWlLk6GJQsqaUBKTNV-1">
          <mxGeometry x="100" y="882" width="100" height="100" as="geometry" />
        </mxCell>
        <UserObject label="2" link="data:page/id,CHhvzhvkEKNey-iGWPLP" id="m1DdPAOqQGmF588avAD0-38">
          <mxCell style="shape=offPageConnector;whiteSpace=wrap;html=1;" vertex="1" parent="WIyWlLk6GJQsqaUBKTNV-1">
            <mxGeometry x="110" y="1020" width="80" height="80" as="geometry" />
          </mxCell>
        </UserObject>
        <mxCell id="xyjWh9T9Yjqq06rUmHZp-1" value="" style="edgeStyle=orthogonalEdgeStyle;rounded=0;orthogonalLoop=1;jettySize=auto;html=1;" edge="1" parent="WIyWlLk6GJQsqaUBKTNV-1" source="xyjWh9T9Yjqq06rUmHZp-0" target="m1DdPAOqQGmF588avAD0-1">
          <mxGeometry relative="1" as="geometry" />
        </mxCell>
        <mxCell id="xyjWh9T9Yjqq06rUmHZp-0" value="Start" style="ellipse;whiteSpace=wrap;html=1;aspect=fixed;" vertex="1" parent="WIyWlLk6GJQsqaUBKTNV-1">
          <mxGeometry x="110" y="40" width="80" height="80" as="geometry" />
        </mxCell>
      </root>
    </mxGraphModel>
  </diagram>
  <diagram id="CHhvzhvkEKNey-iGWPLP" name="2">
    <mxGraphModel dx="1434" dy="836" grid="1" gridSize="10" guides="1" tooltips="1" connect="1" arrows="1" fold="1" page="1" pageScale="1" pageWidth="850" pageHeight="1100" math="0" shadow="0">
      <root>
        <mxCell id="0" />
        <mxCell id="1" parent="0" />
        <mxCell id="yWGhMCB7Y8ylJ5BBb1BG-2" value="" style="edgeStyle=orthogonalEdgeStyle;rounded=0;orthogonalLoop=1;jettySize=auto;html=1;" edge="1" parent="1" source="0JwA-0Fz_8hX73jE5a2N-1" target="yWGhMCB7Y8ylJ5BBb1BG-1">
          <mxGeometry relative="1" as="geometry" />
        </mxCell>
        <UserObject label="2" link="data:page/id,C5RBs43oDa-KdzZeNtuy" id="0JwA-0Fz_8hX73jE5a2N-1">
          <mxCell style="shape=offPageConnector;whiteSpace=wrap;html=1;" vertex="1" parent="1">
            <mxGeometry x="105" y="40" width="80" height="80" as="geometry" />
          </mxCell>
        </UserObject>
        <mxCell id="yWGhMCB7Y8ylJ5BBb1BG-4" value="" style="edgeStyle=orthogonalEdgeStyle;rounded=0;orthogonalLoop=1;jettySize=auto;html=1;" edge="1" parent="1" source="yWGhMCB7Y8ylJ5BBb1BG-1" target="yWGhMCB7Y8ylJ5BBb1BG-3">
          <mxGeometry relative="1" as="geometry" />
        </mxCell>
        <mxCell id="yWGhMCB7Y8ylJ5BBb1BG-5" value="No" style="edgeLabel;html=1;align=center;verticalAlign=middle;resizable=0;points=[];" vertex="1" connectable="0" parent="yWGhMCB7Y8ylJ5BBb1BG-4">
          <mxGeometry x="-0.2364" y="-2" relative="1" as="geometry">
            <mxPoint x="147" y="-17" as="offset" />
          </mxGeometry>
        </mxCell>
        <mxCell id="yWGhMCB7Y8ylJ5BBb1BG-7" value="" style="edgeStyle=orthogonalEdgeStyle;rounded=0;orthogonalLoop=1;jettySize=auto;html=1;" edge="1" parent="1" source="yWGhMCB7Y8ylJ5BBb1BG-1" target="yWGhMCB7Y8ylJ5BBb1BG-6">
          <mxGeometry relative="1" as="geometry" />
        </mxCell>
        <mxCell id="yWGhMCB7Y8ylJ5BBb1BG-8" value="Yes" style="edgeLabel;html=1;align=center;verticalAlign=middle;resizable=0;points=[];" vertex="1" connectable="0" parent="yWGhMCB7Y8ylJ5BBb1BG-7">
          <mxGeometry x="-0.48" y="-2" relative="1" as="geometry">
            <mxPoint x="-13" y="17" as="offset" />
          </mxGeometry>
        </mxCell>
        <mxCell id="yWGhMCB7Y8ylJ5BBb1BG-1" value="Does TCO&lt;div&gt;dispute&lt;/div&gt;&lt;div&gt;exist with&lt;/div&gt;&lt;div&gt;this RCC?&lt;/div&gt;" style="rhombus;whiteSpace=wrap;html=1;" vertex="1" parent="1">
          <mxGeometry x="80" y="140" width="130" height="130" as="geometry" />
        </mxCell>
        <mxCell id="2RO1lXmYmMBYdyaWNLi6-1" style="edgeStyle=orthogonalEdgeStyle;rounded=0;orthogonalLoop=1;jettySize=auto;html=1;exitX=0.5;exitY=1;exitDx=0;exitDy=0;entryX=0.5;entryY=0;entryDx=0;entryDy=0;" edge="1" parent="1" source="yWGhMCB7Y8ylJ5BBb1BG-3" target="yWGhMCB7Y8ylJ5BBb1BG-30">
          <mxGeometry relative="1" as="geometry">
            <mxPoint x="550" y="990" as="targetPoint" />
            <mxPoint x="560" y="290" as="sourcePoint" />
          </mxGeometry>
        </mxCell>
        <mxCell id="yWGhMCB7Y8ylJ5BBb1BG-3" value="Save Dispute" style="rounded=1;whiteSpace=wrap;html=1;" vertex="1" parent="1">
          <mxGeometry x="480" y="177.5" width="120" height="55" as="geometry" />
        </mxCell>
        <mxCell id="yWGhMCB7Y8ylJ5BBb1BG-12" value="" style="edgeStyle=orthogonalEdgeStyle;rounded=0;orthogonalLoop=1;jettySize=auto;html=1;" edge="1" parent="1" source="yWGhMCB7Y8ylJ5BBb1BG-6" target="yWGhMCB7Y8ylJ5BBb1BG-11">
          <mxGeometry relative="1" as="geometry" />
        </mxCell>
        <mxCell id="yWGhMCB7Y8ylJ5BBb1BG-14" value="No" style="edgeLabel;html=1;align=center;verticalAlign=middle;resizable=0;points=[];" vertex="1" connectable="0" parent="yWGhMCB7Y8ylJ5BBb1BG-12">
          <mxGeometry x="0.0222" relative="1" as="geometry">
            <mxPoint x="19" y="-10" as="offset" />
          </mxGeometry>
        </mxCell>
        <mxCell id="yWGhMCB7Y8ylJ5BBb1BG-22" value="" style="edgeStyle=orthogonalEdgeStyle;rounded=0;orthogonalLoop=1;jettySize=auto;html=1;" edge="1" parent="1" source="yWGhMCB7Y8ylJ5BBb1BG-6" target="yWGhMCB7Y8ylJ5BBb1BG-21">
          <mxGeometry relative="1" as="geometry" />
        </mxCell>
        <mxCell id="yWGhMCB7Y8ylJ5BBb1BG-6" value="Hearing&lt;div&gt;Type = W?&lt;/div&gt;" style="rhombus;whiteSpace=wrap;html=1;" vertex="1" parent="1">
          <mxGeometry x="95" y="320" width="100" height="100" as="geometry" />
        </mxCell>
        <mxCell id="yWGhMCB7Y8ylJ5BBb1BG-18" value="" style="edgeStyle=orthogonalEdgeStyle;rounded=0;orthogonalLoop=1;jettySize=auto;html=1;" edge="1" parent="1" source="yWGhMCB7Y8ylJ5BBb1BG-11" target="yWGhMCB7Y8ylJ5BBb1BG-17">
          <mxGeometry relative="1" as="geometry" />
        </mxCell>
        <mxCell id="yWGhMCB7Y8ylJ5BBb1BG-19" value="Yes" style="edgeLabel;html=1;align=center;verticalAlign=middle;resizable=0;points=[];" vertex="1" connectable="0" parent="yWGhMCB7Y8ylJ5BBb1BG-18">
          <mxGeometry x="-0.15" y="3" relative="1" as="geometry">
            <mxPoint x="-23" y="3" as="offset" />
          </mxGeometry>
        </mxCell>
        <mxCell id="yWGhMCB7Y8ylJ5BBb1BG-11" value="Dispute&lt;div&gt;Status =&lt;/div&gt;&lt;div&gt;&#39;REQH&#39;?&lt;/div&gt;" style="rhombus;whiteSpace=wrap;html=1;" vertex="1" parent="1">
          <mxGeometry x="290" y="320" width="100" height="100" as="geometry" />
        </mxCell>
        <mxCell id="yWGhMCB7Y8ylJ5BBb1BG-23" style="edgeStyle=orthogonalEdgeStyle;rounded=0;orthogonalLoop=1;jettySize=auto;html=1;entryX=0.5;entryY=0;entryDx=0;entryDy=0;" edge="1" parent="1" source="yWGhMCB7Y8ylJ5BBb1BG-17" target="yWGhMCB7Y8ylJ5BBb1BG-21">
          <mxGeometry relative="1" as="geometry" />
        </mxCell>
        <mxCell id="yWGhMCB7Y8ylJ5BBb1BG-17" value="Hearing Type = C&lt;div&gt;Dispute Status = HEAR&lt;/div&gt;" style="rounded=1;whiteSpace=wrap;html=1;" vertex="1" parent="1">
          <mxGeometry x="280" y="460" width="120" height="60" as="geometry" />
        </mxCell>
        <mxCell id="yWGhMCB7Y8ylJ5BBb1BG-26" value="" style="edgeStyle=orthogonalEdgeStyle;rounded=0;orthogonalLoop=1;jettySize=auto;html=1;" edge="1" parent="1" source="yWGhMCB7Y8ylJ5BBb1BG-21" target="yWGhMCB7Y8ylJ5BBb1BG-24">
          <mxGeometry relative="1" as="geometry" />
        </mxCell>
        <mxCell id="yWGhMCB7Y8ylJ5BBb1BG-21" value="Hearing&lt;div&gt;Type = W or C&lt;/div&gt;&lt;div&gt;Appr Id != null&lt;/div&gt;" style="rhombus;whiteSpace=wrap;html=1;" vertex="1" parent="1">
          <mxGeometry x="80" y="510" width="130" height="130" as="geometry" />
        </mxCell>
        <mxCell id="yWGhMCB7Y8ylJ5BBb1BG-27" value="" style="edgeStyle=orthogonalEdgeStyle;rounded=0;orthogonalLoop=1;jettySize=auto;html=1;" edge="1" parent="1" source="yWGhMCB7Y8ylJ5BBb1BG-24" target="yWGhMCB7Y8ylJ5BBb1BG-25">
          <mxGeometry relative="1" as="geometry" />
        </mxCell>
        <mxCell id="yWGhMCB7Y8ylJ5BBb1BG-24" value="get latest TCO appearance date" style="rounded=1;whiteSpace=wrap;html=1;" vertex="1" parent="1">
          <mxGeometry x="85" y="660" width="120" height="60" as="geometry" />
        </mxCell>
        <mxCell id="yWGhMCB7Y8ylJ5BBb1BG-29" value="" style="edgeStyle=orthogonalEdgeStyle;rounded=0;orthogonalLoop=1;jettySize=auto;html=1;" edge="1" parent="1" source="yWGhMCB7Y8ylJ5BBb1BG-25" target="yWGhMCB7Y8ylJ5BBb1BG-28">
          <mxGeometry relative="1" as="geometry" />
        </mxCell>
        <mxCell id="yWGhMCB7Y8ylJ5BBb1BG-25" value="get JUSTIN appearance date" style="rounded=1;whiteSpace=wrap;html=1;" vertex="1" parent="1">
          <mxGeometry x="85" y="740" width="120" height="60" as="geometry" />
        </mxCell>
        <mxCell id="yWGhMCB7Y8ylJ5BBb1BG-32" value="" style="edgeStyle=orthogonalEdgeStyle;rounded=0;orthogonalLoop=1;jettySize=auto;html=1;" edge="1" parent="1" source="yWGhMCB7Y8ylJ5BBb1BG-28" target="yWGhMCB7Y8ylJ5BBb1BG-31">
          <mxGeometry relative="1" as="geometry" />
        </mxCell>
        <mxCell id="yWGhMCB7Y8ylJ5BBb1BG-33" value="Yes" style="edgeLabel;html=1;align=center;verticalAlign=middle;resizable=0;points=[];" vertex="1" connectable="0" parent="yWGhMCB7Y8ylJ5BBb1BG-32">
          <mxGeometry x="0.6" y="1" relative="1" as="geometry">
            <mxPoint x="-26" as="offset" />
          </mxGeometry>
        </mxCell>
        <mxCell id="yWGhMCB7Y8ylJ5BBb1BG-34" style="edgeStyle=orthogonalEdgeStyle;rounded=0;orthogonalLoop=1;jettySize=auto;html=1;entryX=0.5;entryY=0;entryDx=0;entryDy=0;" edge="1" parent="1" source="yWGhMCB7Y8ylJ5BBb1BG-28" target="yWGhMCB7Y8ylJ5BBb1BG-30">
          <mxGeometry relative="1" as="geometry" />
        </mxCell>
        <mxCell id="yWGhMCB7Y8ylJ5BBb1BG-28" value="Is JUSTIN&lt;div&gt;Appr Date &amp;gt;=&lt;/div&gt;&lt;div&gt;TCO appearance&lt;br&gt;date?&lt;/div&gt;" style="rhombus;whiteSpace=wrap;html=1;" vertex="1" parent="1">
          <mxGeometry x="85" y="820" width="120" height="120" as="geometry" />
        </mxCell>
        <UserObject label="3" link="data:page/id,PYRYAKnc_9TuGc_otPEm" id="yWGhMCB7Y8ylJ5BBb1BG-30">
          <mxCell style="shape=offPageConnector;whiteSpace=wrap;html=1;" vertex="1" parent="1">
            <mxGeometry x="500" y="990" width="80" height="80" as="geometry" />
          </mxCell>
        </UserObject>
        <mxCell id="yWGhMCB7Y8ylJ5BBb1BG-35" style="edgeStyle=orthogonalEdgeStyle;rounded=0;orthogonalLoop=1;jettySize=auto;html=1;entryX=0.5;entryY=0;entryDx=0;entryDy=0;exitX=0.5;exitY=1;exitDx=0;exitDy=0;" edge="1" parent="1" source="yWGhMCB7Y8ylJ5BBb1BG-31" target="yWGhMCB7Y8ylJ5BBb1BG-30">
          <mxGeometry relative="1" as="geometry">
            <mxPoint x="410" y="970" as="targetPoint" />
          </mxGeometry>
        </mxCell>
        <mxCell id="yWGhMCB7Y8ylJ5BBb1BG-31" value="set&lt;div&gt;dispute status type and&lt;/div&gt;&lt;div&gt;hearing type&lt;/div&gt;" style="rounded=1;whiteSpace=wrap;html=1;" vertex="1" parent="1">
          <mxGeometry x="85" y="960" width="120" height="60" as="geometry" />
        </mxCell>
      </root>
    </mxGraphModel>
  </diagram>
  <diagram id="PYRYAKnc_9TuGc_otPEm" name="3">
    <mxGraphModel dx="1434" dy="836" grid="1" gridSize="10" guides="1" tooltips="1" connect="1" arrows="1" fold="1" page="1" pageScale="1" pageWidth="850" pageHeight="1100" math="0" shadow="0">
      <root>
        <mxCell id="0" />
        <mxCell id="1" parent="0" />
        <mxCell id="P0z46HuDpJHT11oREAdA-2" value="" style="edgeStyle=orthogonalEdgeStyle;rounded=0;orthogonalLoop=1;jettySize=auto;html=1;" edge="1" parent="1" source="wQrnpalEDul8-7VqpQ2q-1" target="P0z46HuDpJHT11oREAdA-1">
          <mxGeometry relative="1" as="geometry" />
        </mxCell>
        <UserObject label="3" link="data:page/id,CHhvzhvkEKNey-iGWPLP" id="wQrnpalEDul8-7VqpQ2q-1">
          <mxCell style="shape=offPageConnector;whiteSpace=wrap;html=1;" vertex="1" parent="1">
            <mxGeometry x="80" y="40" width="80" height="80" as="geometry" />
          </mxCell>
        </UserObject>
        <mxCell id="P0z46HuDpJHT11oREAdA-4" value="" style="edgeStyle=orthogonalEdgeStyle;rounded=0;orthogonalLoop=1;jettySize=auto;html=1;" edge="1" parent="1" source="P0z46HuDpJHT11oREAdA-1" target="P0z46HuDpJHT11oREAdA-3">
          <mxGeometry relative="1" as="geometry" />
        </mxCell>
        <mxCell id="P0z46HuDpJHT11oREAdA-1" value="Hearing&lt;div&gt;Type = W or C&lt;/div&gt;&lt;div&gt;Appr Id != null&lt;/div&gt;" style="rhombus;whiteSpace=wrap;html=1;" vertex="1" parent="1">
          <mxGeometry x="55" y="170" width="130" height="130" as="geometry" />
        </mxCell>
        <mxCell id="P0z46HuDpJHT11oREAdA-6" value="" style="edgeStyle=orthogonalEdgeStyle;rounded=0;orthogonalLoop=1;jettySize=auto;html=1;" edge="1" parent="1" source="P0z46HuDpJHT11oREAdA-3" target="P0z46HuDpJHT11oREAdA-5">
          <mxGeometry relative="1" as="geometry" />
        </mxCell>
        <mxCell id="P0z46HuDpJHT11oREAdA-3" value="get appearance date and court room" style="rounded=1;whiteSpace=wrap;html=1;" vertex="1" parent="1">
          <mxGeometry x="60" y="340" width="120" height="60" as="geometry" />
        </mxCell>
        <mxCell id="P0z46HuDpJHT11oREAdA-8" value="" style="edgeStyle=orthogonalEdgeStyle;rounded=0;orthogonalLoop=1;jettySize=auto;html=1;" edge="1" parent="1" source="P0z46HuDpJHT11oREAdA-5" target="P0z46HuDpJHT11oREAdA-7">
          <mxGeometry relative="1" as="geometry" />
        </mxCell>
        <mxCell id="P0z46HuDpJHT11oREAdA-5" value="get JUSTIN adjudicator name" style="rounded=1;whiteSpace=wrap;html=1;" vertex="1" parent="1">
          <mxGeometry x="60" y="430" width="120" height="60" as="geometry" />
        </mxCell>
        <mxCell id="P0z46HuDpJHT11oREAdA-10" style="edgeStyle=orthogonalEdgeStyle;rounded=0;orthogonalLoop=1;jettySize=auto;html=1;" edge="1" parent="1" source="P0z46HuDpJHT11oREAdA-7" target="P0z46HuDpJHT11oREAdA-9">
          <mxGeometry relative="1" as="geometry" />
        </mxCell>
        <mxCell id="P0z46HuDpJHT11oREAdA-11" value="No" style="edgeLabel;html=1;align=center;verticalAlign=middle;resizable=0;points=[];" vertex="1" connectable="0" parent="P0z46HuDpJHT11oREAdA-10">
          <mxGeometry x="0.1412" y="2" relative="1" as="geometry">
            <mxPoint x="53" y="-8" as="offset" />
          </mxGeometry>
        </mxCell>
        <mxCell id="P0z46HuDpJHT11oREAdA-13" value="" style="edgeStyle=orthogonalEdgeStyle;rounded=0;orthogonalLoop=1;jettySize=auto;html=1;" edge="1" parent="1" source="P0z46HuDpJHT11oREAdA-7" target="P0z46HuDpJHT11oREAdA-12">
          <mxGeometry relative="1" as="geometry" />
        </mxCell>
        <mxCell id="P0z46HuDpJHT11oREAdA-7" value="TCO&lt;div&gt;Appr&lt;/div&gt;&lt;div&gt;exists?&lt;/div&gt;" style="rhombus;whiteSpace=wrap;html=1;" vertex="1" parent="1">
          <mxGeometry x="80" y="530" width="80" height="80" as="geometry" />
        </mxCell>
        <mxCell id="P0z46HuDpJHT11oREAdA-9" value="create TCO&lt;div&gt;appearance&lt;/div&gt;" style="rounded=1;whiteSpace=wrap;html=1;" vertex="1" parent="1">
          <mxGeometry x="330" y="540" width="120" height="60" as="geometry" />
        </mxCell>
        <mxCell id="P0z46HuDpJHT11oREAdA-15" value="" style="edgeStyle=orthogonalEdgeStyle;rounded=0;orthogonalLoop=1;jettySize=auto;html=1;entryX=0.5;entryY=0;entryDx=0;entryDy=0;" edge="1" parent="1" source="P0z46HuDpJHT11oREAdA-12" target="xrD4s7U_xa2Ijk5fJXoV-1">
          <mxGeometry relative="1" as="geometry">
            <mxPoint x="120" y="760" as="targetPoint" />
          </mxGeometry>
        </mxCell>
        <mxCell id="P0z46HuDpJHT11oREAdA-12" value="update TCO&lt;div&gt;appearance with&amp;nbsp;&lt;/div&gt;&lt;div&gt;date, room, jj name and apearance reason&lt;/div&gt;" style="rounded=1;whiteSpace=wrap;html=1;" vertex="1" parent="1">
          <mxGeometry x="45" y="660" width="150" height="60" as="geometry" />
        </mxCell>
        <UserObject label="4" link="data:page/id,K0nWp1RPRpg-frlgp9cH" id="xrD4s7U_xa2Ijk5fJXoV-1">
          <mxCell style="shape=offPageConnector;whiteSpace=wrap;html=1;" vertex="1" parent="1">
            <mxGeometry x="80" y="770" width="80" height="80" as="geometry" />
          </mxCell>
        </UserObject>
      </root>
    </mxGraphModel>
  </diagram>
  <diagram id="K0nWp1RPRpg-frlgp9cH" name="4">
    <mxGraphModel dx="1434" dy="836" grid="1" gridSize="10" guides="1" tooltips="1" connect="1" arrows="1" fold="1" page="1" pageScale="1" pageWidth="850" pageHeight="1100" math="0" shadow="0">
      <root>
        <mxCell id="0" />
        <mxCell id="1" parent="0" />
        <mxCell id="wjVU5FRmX-C8xc8dWLvP-6" value="" style="edgeStyle=orthogonalEdgeStyle;rounded=0;orthogonalLoop=1;jettySize=auto;html=1;" edge="1" parent="1" source="jKvrPk4g0E__2N56JYwv-1" target="wjVU5FRmX-C8xc8dWLvP-2">
          <mxGeometry relative="1" as="geometry" />
        </mxCell>
        <mxCell id="jKvrPk4g0E__2N56JYwv-1" value="for each&lt;div&gt;matter doc count&lt;/div&gt;&lt;div&gt;on the RCC&lt;/div&gt;" style="html=1;dashed=0;whiteSpace=wrap;shape=mxgraph.dfd.loop" vertex="1" parent="1">
          <mxGeometry x="70" y="150" width="160" height="60" as="geometry" />
        </mxCell>
        <mxCell id="wjVU5FRmX-C8xc8dWLvP-1" value="" style="edgeStyle=orthogonalEdgeStyle;rounded=0;orthogonalLoop=1;jettySize=auto;html=1;" edge="1" parent="1" source="zWNW-U3SiGOYMQW0sQGZ-1" target="jKvrPk4g0E__2N56JYwv-1">
          <mxGeometry relative="1" as="geometry" />
        </mxCell>
        <UserObject label="4" link="data:page/id,PYRYAKnc_9TuGc_otPEm" id="zWNW-U3SiGOYMQW0sQGZ-1">
          <mxCell style="shape=offPageConnector;whiteSpace=wrap;html=1;" vertex="1" parent="1">
            <mxGeometry x="110" y="30" width="80" height="80" as="geometry" />
          </mxCell>
        </UserObject>
        <mxCell id="wjVU5FRmX-C8xc8dWLvP-7" value="" style="edgeStyle=orthogonalEdgeStyle;rounded=0;orthogonalLoop=1;jettySize=auto;html=1;" edge="1" parent="1" source="wjVU5FRmX-C8xc8dWLvP-2" target="wjVU5FRmX-C8xc8dWLvP-3">
          <mxGeometry relative="1" as="geometry" />
        </mxCell>
        <mxCell id="wjVU5FRmX-C8xc8dWLvP-2" value="get JUSTIN inbox count seq no" style="rounded=1;whiteSpace=wrap;html=1;" vertex="1" parent="1">
          <mxGeometry x="90" y="250" width="120" height="60" as="geometry" />
        </mxCell>
        <mxCell id="wjVU5FRmX-C8xc8dWLvP-8" value="" style="edgeStyle=orthogonalEdgeStyle;rounded=0;orthogonalLoop=1;jettySize=auto;html=1;" edge="1" parent="1" source="wjVU5FRmX-C8xc8dWLvP-3" target="wjVU5FRmX-C8xc8dWLvP-4">
          <mxGeometry relative="1" as="geometry" />
        </mxCell>
        <mxCell id="wjVU5FRmX-C8xc8dWLvP-3" value="get OCCAM ticket count id" style="rounded=1;whiteSpace=wrap;html=1;" vertex="1" parent="1">
          <mxGeometry x="90" y="350" width="120" height="60" as="geometry" />
        </mxCell>
        <mxCell id="wjVU5FRmX-C8xc8dWLvP-9" value="" style="edgeStyle=orthogonalEdgeStyle;rounded=0;orthogonalLoop=1;jettySize=auto;html=1;" edge="1" parent="1" source="wjVU5FRmX-C8xc8dWLvP-4" target="wjVU5FRmX-C8xc8dWLvP-5">
          <mxGeometry relative="1" as="geometry" />
        </mxCell>
        <mxCell id="wjVU5FRmX-C8xc8dWLvP-4" value="get OCCAM plea code" style="rounded=1;whiteSpace=wrap;html=1;" vertex="1" parent="1">
          <mxGeometry x="90" y="450" width="120" height="60" as="geometry" />
        </mxCell>
        <mxCell id="wjVU5FRmX-C8xc8dWLvP-11" style="edgeStyle=orthogonalEdgeStyle;rounded=0;orthogonalLoop=1;jettySize=auto;html=1;entryX=0;entryY=0.5;entryDx=0;entryDy=0;" edge="1" parent="1" source="wjVU5FRmX-C8xc8dWLvP-5" target="wjVU5FRmX-C8xc8dWLvP-10">
          <mxGeometry relative="1" as="geometry" />
        </mxCell>
        <mxCell id="wjVU5FRmX-C8xc8dWLvP-12" value="No" style="edgeLabel;html=1;align=center;verticalAlign=middle;resizable=0;points=[];" vertex="1" connectable="0" parent="wjVU5FRmX-C8xc8dWLvP-11">
          <mxGeometry x="0.0222" y="2" relative="1" as="geometry">
            <mxPoint x="24" y="-8" as="offset" />
          </mxGeometry>
        </mxCell>
        <mxCell id="wjVU5FRmX-C8xc8dWLvP-21" style="edgeStyle=orthogonalEdgeStyle;rounded=0;orthogonalLoop=1;jettySize=auto;html=1;entryX=0.5;entryY=0;entryDx=0;entryDy=0;" edge="1" parent="1" source="wjVU5FRmX-C8xc8dWLvP-5" target="wjVU5FRmX-C8xc8dWLvP-20">
          <mxGeometry relative="1" as="geometry" />
        </mxCell>
        <mxCell id="wjVU5FRmX-C8xc8dWLvP-22" value="Yes" style="edgeLabel;html=1;align=center;verticalAlign=middle;resizable=0;points=[];" vertex="1" connectable="0" parent="wjVU5FRmX-C8xc8dWLvP-21">
          <mxGeometry x="0.159" y="1" relative="1" as="geometry">
            <mxPoint x="-21" y="41" as="offset" />
          </mxGeometry>
        </mxCell>
        <mxCell id="wjVU5FRmX-C8xc8dWLvP-5" value="TCO&lt;div&gt;count&lt;/div&gt;&lt;div&gt;exists?&lt;/div&gt;" style="rhombus;whiteSpace=wrap;html=1;" vertex="1" parent="1">
          <mxGeometry x="110" y="550" width="80" height="80" as="geometry" />
        </mxCell>
        <mxCell id="wjVU5FRmX-C8xc8dWLvP-15" value="" style="edgeStyle=orthogonalEdgeStyle;rounded=0;orthogonalLoop=1;jettySize=auto;html=1;" edge="1" parent="1" source="wjVU5FRmX-C8xc8dWLvP-10" target="wjVU5FRmX-C8xc8dWLvP-13">
          <mxGeometry relative="1" as="geometry" />
        </mxCell>
        <mxCell id="wjVU5FRmX-C8xc8dWLvP-16" value="Yes" style="edgeLabel;html=1;align=center;verticalAlign=middle;resizable=0;points=[];" vertex="1" connectable="0" parent="wjVU5FRmX-C8xc8dWLvP-15">
          <mxGeometry x="-0.5672" y="2" relative="1" as="geometry">
            <mxPoint x="-17" y="15" as="offset" />
          </mxGeometry>
        </mxCell>
        <mxCell id="wjVU5FRmX-C8xc8dWLvP-19" value="" style="edgeStyle=orthogonalEdgeStyle;rounded=0;orthogonalLoop=1;jettySize=auto;html=1;" edge="1" parent="1" source="wjVU5FRmX-C8xc8dWLvP-10" target="wjVU5FRmX-C8xc8dWLvP-18">
          <mxGeometry relative="1" as="geometry" />
        </mxCell>
        <mxCell id="wjVU5FRmX-C8xc8dWLvP-10" value="OCCAM&lt;div&gt;count id&lt;/div&gt;&lt;div&gt;null?&lt;/div&gt;" style="rhombus;whiteSpace=wrap;html=1;" vertex="1" parent="1">
          <mxGeometry x="280" y="545" width="90" height="90" as="geometry" />
        </mxCell>
        <mxCell id="sctt4bxmLvabIyZk6CT_-3" style="edgeStyle=orthogonalEdgeStyle;rounded=0;orthogonalLoop=1;jettySize=auto;html=1;entryX=0.5;entryY=0;entryDx=0;entryDy=0;" edge="1" parent="1" source="wjVU5FRmX-C8xc8dWLvP-13" target="8wKTQ_7G9qnZ6JdonCz--1">
          <mxGeometry relative="1" as="geometry">
            <mxPoint x="150" y="840" as="targetPoint" />
            <Array as="points">
              <mxPoint x="325" y="780" />
              <mxPoint x="150" y="780" />
            </Array>
          </mxGeometry>
        </mxCell>
        <mxCell id="wjVU5FRmX-C8xc8dWLvP-13" value="create OCCAM audit log entry &#39;OCNT&#39;" style="rounded=1;whiteSpace=wrap;html=1;" vertex="1" parent="1">
          <mxGeometry x="265" y="680" width="120" height="60" as="geometry" />
        </mxCell>
        <mxCell id="sctt4bxmLvabIyZk6CT_-4" style="edgeStyle=orthogonalEdgeStyle;rounded=0;orthogonalLoop=1;jettySize=auto;html=1;entryX=0.5;entryY=0;entryDx=0;entryDy=0;" edge="1" parent="1" source="wjVU5FRmX-C8xc8dWLvP-18" target="8wKTQ_7G9qnZ6JdonCz--1">
          <mxGeometry relative="1" as="geometry">
            <mxPoint x="150" y="840" as="targetPoint" />
            <Array as="points">
              <mxPoint x="530" y="810" />
              <mxPoint x="150" y="810" />
            </Array>
          </mxGeometry>
        </mxCell>
        <mxCell id="wjVU5FRmX-C8xc8dWLvP-18" value="tco_dispute&lt;div&gt;pDisputeCountSave&lt;/div&gt;" style="shape=process;whiteSpace=wrap;html=1;backgroundOutline=1;" vertex="1" parent="1">
          <mxGeometry x="450" y="560" width="160" height="60" as="geometry" />
        </mxCell>
        <mxCell id="sctt4bxmLvabIyZk6CT_-2" style="edgeStyle=orthogonalEdgeStyle;rounded=0;orthogonalLoop=1;jettySize=auto;html=1;entryX=0.5;entryY=0;entryDx=0;entryDy=0;" edge="1" parent="1" source="wjVU5FRmX-C8xc8dWLvP-20" target="8wKTQ_7G9qnZ6JdonCz--1">
          <mxGeometry relative="1" as="geometry">
            <mxPoint x="150" y="840" as="targetPoint" />
          </mxGeometry>
        </mxCell>
        <mxCell id="wjVU5FRmX-C8xc8dWLvP-20" value="get TCO dipsute count by OCCAM&lt;div&gt;ticket count id&lt;/div&gt;" style="rounded=1;whiteSpace=wrap;html=1;fillColor=#d80073;fontColor=#ffffff;strokeColor=#A50040;" vertex="1" parent="1">
          <mxGeometry x="90" y="690" width="120" height="60" as="geometry" />
        </mxCell>
        <UserObject label="5" link="data:page/id,noI4fQOMHcdq1qRlhWPb" id="8wKTQ_7G9qnZ6JdonCz--1">
          <mxCell style="shape=offPageConnector;whiteSpace=wrap;html=1;" vertex="1" parent="1">
            <mxGeometry x="110" y="880" width="80" height="80" as="geometry" />
          </mxCell>
        </UserObject>
      </root>
    </mxGraphModel>
  </diagram>
  <diagram id="noI4fQOMHcdq1qRlhWPb" name="5">
    <mxGraphModel dx="1434" dy="836" grid="1" gridSize="10" guides="1" tooltips="1" connect="1" arrows="1" fold="1" page="1" pageScale="1" pageWidth="850" pageHeight="1100" math="0" shadow="0">
      <root>
        <mxCell id="0" />
        <mxCell id="1" parent="0" />
        <mxCell id="Z5D-c4volNSAWIqP4s91-4" value="" style="edgeStyle=orthogonalEdgeStyle;rounded=0;orthogonalLoop=1;jettySize=auto;html=1;entryX=0.5;entryY=0;entryDx=0;entryDy=0;" edge="1" parent="1" source="YH3NwLCiiL67TqK2_lMo-1" target="Z5D-c4volNSAWIqP4s91-9">
          <mxGeometry relative="1" as="geometry">
            <mxPoint x="285" y="330" as="targetPoint" />
          </mxGeometry>
        </mxCell>
        <mxCell id="Z5D-c4volNSAWIqP4s91-7" value="Yes" style="edgeLabel;html=1;align=center;verticalAlign=middle;resizable=0;points=[];" vertex="1" connectable="0" parent="Z5D-c4volNSAWIqP4s91-4">
          <mxGeometry x="-0.3" y="-2" relative="1" as="geometry">
            <mxPoint x="-18" y="25" as="offset" />
          </mxGeometry>
        </mxCell>
        <mxCell id="Z5D-c4volNSAWIqP4s91-8" style="edgeStyle=orthogonalEdgeStyle;rounded=0;orthogonalLoop=1;jettySize=auto;html=1;" edge="1" parent="1" source="YH3NwLCiiL67TqK2_lMo-1" target="Z5D-c4volNSAWIqP4s91-2">
          <mxGeometry relative="1" as="geometry" />
        </mxCell>
        <mxCell id="Z5D-c4volNSAWIqP4s91-10" value="No" style="edgeLabel;html=1;align=center;verticalAlign=middle;resizable=0;points=[];" vertex="1" connectable="0" parent="Z5D-c4volNSAWIqP4s91-8">
          <mxGeometry x="-0.8278" y="2" relative="1" as="geometry">
            <mxPoint x="-47" y="-13" as="offset" />
          </mxGeometry>
        </mxCell>
        <mxCell id="YH3NwLCiiL67TqK2_lMo-1" value="Hearing&lt;div&gt;Type = W or C&lt;/div&gt;&lt;div&gt;Appr Id != null&lt;/div&gt;" style="rhombus;whiteSpace=wrap;html=1;" vertex="1" parent="1">
          <mxGeometry x="220" y="160" width="130" height="130" as="geometry" />
        </mxCell>
        <mxCell id="Z5D-c4volNSAWIqP4s91-1" style="edgeStyle=orthogonalEdgeStyle;rounded=0;orthogonalLoop=1;jettySize=auto;html=1;entryX=0.5;entryY=0;entryDx=0;entryDy=0;" edge="1" parent="1" source="eb452ZSEek_p5YcflhH3-1" target="YH3NwLCiiL67TqK2_lMo-1">
          <mxGeometry relative="1" as="geometry" />
        </mxCell>
        <UserObject label="5" link="data:page/id,K0nWp1RPRpg-frlgp9cH" id="eb452ZSEek_p5YcflhH3-1">
          <mxCell style="shape=offPageConnector;whiteSpace=wrap;html=1;" vertex="1" parent="1">
            <mxGeometry x="245" y="30" width="80" height="80" as="geometry" />
          </mxCell>
        </UserObject>
        <mxCell id="Z5D-c4volNSAWIqP4s91-2" value="Finished" style="ellipse;whiteSpace=wrap;html=1;aspect=fixed;" vertex="1" parent="1">
          <mxGeometry x="545" y="920" width="80" height="80" as="geometry" />
        </mxCell>
        <mxCell id="Z5D-c4volNSAWIqP4s91-12" value="" style="edgeStyle=orthogonalEdgeStyle;rounded=0;orthogonalLoop=1;jettySize=auto;html=1;" edge="1" parent="1" source="Z5D-c4volNSAWIqP4s91-9" target="Z5D-c4volNSAWIqP4s91-11">
          <mxGeometry relative="1" as="geometry" />
        </mxCell>
        <mxCell id="Z5D-c4volNSAWIqP4s91-13" value="Yes" style="edgeLabel;html=1;align=center;verticalAlign=middle;resizable=0;points=[];" vertex="1" connectable="0" parent="Z5D-c4volNSAWIqP4s91-12">
          <mxGeometry x="-0.12" y="-1" relative="1" as="geometry">
            <mxPoint x="-19" y="8" as="offset" />
          </mxGeometry>
        </mxCell>
        <mxCell id="Z5D-c4volNSAWIqP4s91-16" style="edgeStyle=orthogonalEdgeStyle;rounded=0;orthogonalLoop=1;jettySize=auto;html=1;entryX=0.5;entryY=0;entryDx=0;entryDy=0;" edge="1" parent="1" source="Z5D-c4volNSAWIqP4s91-9" target="Z5D-c4volNSAWIqP4s91-2">
          <mxGeometry relative="1" as="geometry" />
        </mxCell>
        <mxCell id="Z5D-c4volNSAWIqP4s91-17" value="No" style="edgeLabel;html=1;align=center;verticalAlign=middle;resizable=0;points=[];" vertex="1" connectable="0" parent="Z5D-c4volNSAWIqP4s91-16">
          <mxGeometry x="-0.834" y="1" relative="1" as="geometry">
            <mxPoint x="-34" y="-19" as="offset" />
          </mxGeometry>
        </mxCell>
        <mxCell id="Z5D-c4volNSAWIqP4s91-9" value="TCO&lt;br&gt;appearance charge count exists?" style="rhombus;whiteSpace=wrap;html=1;" vertex="1" parent="1">
          <mxGeometry x="225" y="360" width="120" height="120" as="geometry" />
        </mxCell>
        <mxCell id="Z5D-c4volNSAWIqP4s91-14" style="edgeStyle=orthogonalEdgeStyle;rounded=0;orthogonalLoop=1;jettySize=auto;html=1;" edge="1" parent="1" source="Z5D-c4volNSAWIqP4s91-11">
          <mxGeometry relative="1" as="geometry">
            <mxPoint x="585" y="920" as="targetPoint" />
          </mxGeometry>
        </mxCell>
        <mxCell id="Z5D-c4volNSAWIqP4s91-15" value="No" style="edgeLabel;html=1;align=center;verticalAlign=middle;resizable=0;points=[];" vertex="1" connectable="0" parent="Z5D-c4volNSAWIqP4s91-14">
          <mxGeometry x="-0.6348" y="-2" relative="1" as="geometry">
            <mxPoint x="-49" y="-17" as="offset" />
          </mxGeometry>
        </mxCell>
        <mxCell id="Z5D-c4volNSAWIqP4s91-19" style="edgeStyle=orthogonalEdgeStyle;rounded=0;orthogonalLoop=1;jettySize=auto;html=1;entryX=0.5;entryY=0;entryDx=0;entryDy=0;" edge="1" parent="1" source="Z5D-c4volNSAWIqP4s91-11" target="Z5D-c4volNSAWIqP4s91-18">
          <mxGeometry relative="1" as="geometry" />
        </mxCell>
        <mxCell id="Z5D-c4volNSAWIqP4s91-20" value="Yes" style="edgeLabel;html=1;align=center;verticalAlign=middle;resizable=0;points=[];" vertex="1" connectable="0" parent="Z5D-c4volNSAWIqP4s91-19">
          <mxGeometry x="0.0333" y="-3" relative="1" as="geometry">
            <mxPoint x="-17" as="offset" />
          </mxGeometry>
        </mxCell>
        <mxCell id="Z5D-c4volNSAWIqP4s91-11" value="is this count&lt;br&gt;scheduled to&lt;br&gt;JUSTIN&lt;br&gt;appearance?" style="rhombus;whiteSpace=wrap;html=1;" vertex="1" parent="1">
          <mxGeometry x="220" y="530" width="130" height="130" as="geometry" />
        </mxCell>
        <mxCell id="Z5D-c4volNSAWIqP4s91-21" style="edgeStyle=orthogonalEdgeStyle;rounded=0;orthogonalLoop=1;jettySize=auto;html=1;entryX=0.5;entryY=0;entryDx=0;entryDy=0;exitX=0.5;exitY=1;exitDx=0;exitDy=0;" edge="1" parent="1" source="Z5D-c4volNSAWIqP4s91-18" target="Z5D-c4volNSAWIqP4s91-2">
          <mxGeometry relative="1" as="geometry" />
        </mxCell>
        <mxCell id="Z5D-c4volNSAWIqP4s91-18" value="tco_court_appearance&lt;div&gt;pAppearanceChargeCountSave&lt;/div&gt;" style="shape=process;whiteSpace=wrap;html=1;backgroundOutline=1;" vertex="1" parent="1">
          <mxGeometry x="160" y="720" width="250" height="60" as="geometry" />
        </mxCell>
      </root>
    </mxGraphModel>
  </diagram>
</mxfile>
